# xmcd
#
# Track frame offsets:
#	150
#	14950
#	30667
#	43317
#	59790
#	81470
#	96775
#	107280
#	119182
#	133757
#	159850
#	171705
#	184387
#	201752
#	212820
#
# Disc length: 3010 seconds
#
# Revision: 2
# Processed by: cddbd v1.4b42PL0 Copyright (c) Steve Scherf et al.
# Submitted via: EZCDDA 4.3.2
#
DISCID=ec0bc00f
DTITLE=Patrik Ömalm - Down that lonesome road
DYEAR=1900
DGENRE=
TTITLE0=The natural way
TTITLE1=Head hung down
TTITLE2=Hot stuff
TTITLE3=You don't know
TTITLE4=In the rain
TTITLE5=Cash and fame
TTITLE6=Time to move
TTITLE7=Shy little Annie
TTITLE8=Leavin' our home
TTITLE9=No progress blues
TTITLE10=Can't stand this pain no more
TTITLE11=Emergencybreak
TTITLE12=Dead end blues
TTITLE13=Sultan of slam
TTITLE14=Down that lonesome road
EXTD=
EXTT0=
EXTT1=
EXTT2=
EXTT3=
EXTT4=
EXTT5=
EXTT6=
EXTT7=
EXTT8=
EXTT9=
EXTT10=
EXTT11=
EXTT12=
EXTT13=
EXTT14=
PLAYORDER=
